<?xml version="1.0" encoding="UTF-8"?><svg id="Layer_1" xmlns="http://www.w3.org/2000/svg" viewBox="0 0 483 473"><defs><style>.cls-1{fill:#fff;}.cls-2{fill:#a8e29f;}.cls-3{fill:#40af2f;}</style></defs><g><path class="cls-2" d="M269.62,378.1h-15.51v-8.55h15.51s-2.67,3.03-2.84,4c-.17,.98,2.84,4.55,2.84,4.55Z"/><path class="cls-3" d="M70.45,394.59c-4.94,0-8.99-1.57-12.15-4.71-3.16-3.14-4.75-7.23-4.75-12.25s1.6-9.11,4.81-12.25,7.37-4.71,12.49-4.71c2.74,0,5.34,.54,7.81,1.62,2.47,1.08,4.51,2.63,6.13,4.65l-5.93,5.12c-2.02-2.33-4.58-3.5-7.68-3.5-2.6,0-4.71,.84-6.33,2.52s-2.42,3.85-2.42,6.5,.82,4.89,2.46,6.6,3.76,2.56,6.36,2.56c3.14,0,5.7-1.12,7.67-3.37l5.99,5.32c-1.53,1.75-3.54,3.18-6.03,4.28-2.47,1.07-5.29,1.62-8.43,1.62Z"/><path class="cls-3" d="M106.74,394.59c-5.16,0-9.36-1.59-12.59-4.78-3.23-3.19-4.85-7.25-4.85-12.19s1.62-9,4.85-12.19,7.43-4.78,12.59-4.78,9.31,1.57,12.59,4.71c3.28,3.14,4.92,7.23,4.92,12.25s-1.64,9.11-4.92,12.25c-3.27,3.16-7.47,4.73-12.59,4.73Zm0-7.88c2.42,0,4.45-.85,6.09-2.56s2.46-3.88,2.46-6.53-.81-4.88-2.42-6.56c-1.62-1.68-3.66-2.52-6.13-2.52s-4.57,.86-6.16,2.59-2.39,3.9-2.39,6.5,.81,4.71,2.42,6.46c1.62,1.75,3.66,2.62,6.13,2.62Z"/><path class="cls-3" d="M150.77,360.66c7.99,0,11.99,4.62,11.99,13.87v19.52h-8.82v-17.3c0-3.01-.52-5.13-1.55-6.36-1.03-1.23-2.63-1.85-4.78-1.85-2.29,0-4.11,.77-5.45,2.32-1.35,1.55-2.02,3.76-2.02,6.63v16.56h-8.82v-32.86h8.82v4.24h.13c2.69-3.18,6.19-4.77,10.5-4.77Z"/><path class="cls-3" d="M194.94,344.5h8.82v49.55h-8.42v-3.97h-.13c-2.38,3.01-5.75,4.51-10.1,4.51-4.58,0-8.35-1.56-11.31-4.68s-4.44-7.19-4.44-12.22,1.47-9.01,4.41-12.22,6.63-4.81,11.07-4.81c4.18,0,7.47,1.41,9.9,4.24h.2v-20.4h0Zm-14.27,39.72c1.57,1.66,3.59,2.49,6.06,2.49s4.53-.83,6.19-2.49,2.49-3.81,2.49-6.46-.82-4.85-2.46-6.6-3.72-2.63-6.23-2.63-4.43,.84-6.03,2.52c-1.59,1.68-2.39,3.92-2.39,6.7,.01,2.66,.79,4.81,2.37,6.47Z"/><path class="cls-3" d="M236.15,361.2h8.75v32.86h-8.35v-3.97h-.2c-2.29,3.01-5.57,4.51-9.83,4.51-4.58,0-8.34-1.56-11.28-4.68s-4.41-7.19-4.41-12.22,1.47-9.01,4.41-12.22,6.63-4.81,11.07-4.81c4.08,0,7.29,1.41,9.63,4.24h.2v-3.71h0Zm-8.02,25.51c2.33,0,4.31-.83,5.93-2.49s2.42-3.81,2.42-6.46-.78-4.85-2.36-6.6c-1.57-1.75-3.55-2.63-5.93-2.63s-4.44,.84-6.06,2.52-2.42,3.92-2.42,6.7,.78,4.8,2.36,6.46c1.58,1.67,3.6,2.5,6.06,2.5Z"/><path class="cls-3" d="M291.09,394.59c-5.16,0-9.61-1.59-13.33-4.78l4.31-6.13c2.69,2.56,5.72,3.84,9.09,3.84,1.26,0,2.24-.25,2.96-.74s1.08-1.14,1.08-1.95c0-.72-.43-1.32-1.28-1.82-.85-.49-2.43-1.1-4.71-1.82-3.19-1.08-5.67-2.41-7.44-4.01-1.77-1.59-2.66-3.83-2.66-6.7s1.12-5.28,3.37-7.1c2.24-1.82,5.07-2.73,8.48-2.73,4.49,0,8.48,1.37,11.98,4.11l-4.24,6.46c-2.47-2.33-5.09-3.5-7.88-3.5-.81,0-1.55,.21-2.22,.64-.67,.43-1.01,1.04-1.01,1.85,0,.63,.39,1.2,1.18,1.72,.78,.52,2.05,1.11,3.8,1.78,1.79,.67,3.12,1.18,3.97,1.52s1.86,.83,3.03,1.48c1.17,.65,1.99,1.28,2.46,1.89,.47,.61,.9,1.4,1.28,2.39,.38,.99,.57,2.11,.57,3.37,0,3.05-1.09,5.52-3.27,7.41-2.18,1.88-5.35,2.82-9.52,2.82Z"/><path class="cls-3" d="M320.84,394.59c-2.92,0-5.21-.92-6.87-2.76-1.66-1.84-2.49-4.55-2.49-8.15v-15.22h-3.91v-7.27h3.91v-10.77l8.75-.94v11.71h8.95v7.27h-8.95v14c0,2.78,.97,4.17,2.89,4.17,1.26,0,2.65-.38,4.18-1.14l2.29,7.07c-2.51,1.36-5.42,2.03-8.75,2.03Z"/><path class="cls-3" d="M349.8,394.59c-5.16,0-9.36-1.59-12.59-4.78-3.23-3.19-4.85-7.25-4.85-12.19s1.62-9,4.85-12.19,7.43-4.78,12.59-4.78,9.31,1.57,12.59,4.71c3.28,3.14,4.92,7.23,4.92,12.25s-1.64,9.11-4.92,12.25c-3.28,3.16-7.48,4.73-12.59,4.73Zm0-7.88c2.42,0,4.45-.85,6.09-2.56,1.64-1.71,2.46-3.88,2.46-6.53s-.81-4.88-2.42-6.56c-1.62-1.68-3.66-2.52-6.13-2.52s-4.57,.86-6.16,2.59-2.39,3.9-2.39,6.5,.81,4.71,2.42,6.46c1.62,1.75,3.66,2.62,6.13,2.62Z"/><path class="cls-3" d="M393.22,360.66c.36,0,.58,.02,.67,.07v9.56c-.58-.04-1.35-.07-2.29-.07-2.65,0-4.71,.8-6.2,2.39-1.48,1.59-2.22,3.65-2.22,6.16v15.28h-8.82v-32.86h8.82v4.85h.07c2.57-3.59,5.89-5.38,9.97-5.38Z"/><path class="cls-3" d="M429.45,377.29c0,1.75-.07,2.81-.2,3.16h-23.09c.54,1.98,1.55,3.52,3.03,4.65,1.48,1.12,3.27,1.68,5.39,1.68,3.19,.04,5.81-1.19,7.88-3.7l5.73,5.32c-3.28,4.13-8.01,6.19-14.21,6.19-4.89,0-8.93-1.57-12.12-4.71-3.19-3.14-4.78-7.25-4.78-12.32s1.54-8.99,4.61-12.15c3.08-3.16,6.97-4.75,11.68-4.75s8.63,1.56,11.61,4.68c2.97,3.12,4.47,7.1,4.47,11.95Zm-15.83-8.89c-1.84,0-3.41,.49-4.71,1.48-1.3,.99-2.2,2.4-2.69,4.24h14.47c-.98-3.81-3.34-5.72-7.07-5.72Z"/></g><g><path class="cls-3" d="M230.91,190.51c-25.03-13.82-49.97-27.79-74.97-41.67-7.98-4.43-13.58-1.14-13.59,7.95-.03,14.3,0,28.6,0,42.91s.1,28.61-.06,42.91c-.05,4.88,1.66,8.03,6.14,10.28,25.3,12.72,50.49,25.66,75.74,38.48,6.92,3.51,12.48,.03,12.48-7.81,.03-27.8-.06-55.59,.08-83.39,.03-4.66-1.84-7.47-5.81-9.66Z"/><path class="cls-2" d="M252.09,190.51c25.03-13.82,49.97-27.79,74.97-41.67,7.98-4.43,13.58-1.14,13.59,7.95,.03,14.3,.01,28.6,.01,42.91s-.1,28.61,.06,42.91c.05,4.88-1.66,8.03-6.14,10.28-25.3,12.72-50.49,25.66-75.74,38.48-6.92,3.51-12.48,.03-12.48-7.81-.03-27.8,.06-55.59-.08-83.39-.03-4.66,1.84-7.47,5.81-9.66Z"/><path class="cls-2" d="M290.75,79.87h-15.51v8.55h15.51s-2.67-3.03-2.84-4,2.84-4.55,2.84-4.55Z"/><path class="cls-1" d="M253.96,81.14c2.24,.1,4.06-1.55,4.17-3.8,.1-2.24-1.55-4.04-3.81-4.15-2.22-.11-4.11,1.6-4.2,3.79-.1,2.21,1.61,4.06,3.84,4.16Z"/><path class="cls-3" d="M272.91,116.34c-1.3-1.67-3.56-3.41-6.78-5.2s-6.01-3.16-8.36-4.09c-2.36-.93-6.01-2.32-10.96-4.18-4.83-1.86-8.33-3.5-10.5-4.92s-3.25-3-3.25-4.74c0-2.23,.93-3.93,2.79-5.11,1.78-1.13,3.74-1.7,5.87-1.75v-.07c8.84,.59,19.22,1.62,27.8,2.13,1.54,.09,1.86-.32,1.77-1.76-.64-10.54-8.63-17.48-19.04-19.2-.84-.14-1.87-.26-2.95-.36h0c-6.33-.8-10.57-.24-12.01,0-7.19,.76-13.31,3.18-18.36,7.27-6.2,5.02-9.29,11.55-9.29,19.6s2.45,14.09,7.34,18.49c4.89,4.4,11.73,8.08,20.53,11.06,6.32,1.98,10.65,3.66,13.01,5.02,2.35,1.36,3.53,3.04,3.53,5.02,0,2.23-.99,4.03-2.98,5.39-1.98,1.36-4.71,2.04-8.18,2.04-1.48,0-2.94-.1-4.38-.28-9.62-.7-16.9-1.75-26.52-2.5-1.32-.1-1.66,.2-1.64,1.5,.16,10.15,7.89,18.06,17.98,19.45,1.85,.25,6.56,1.18,10.53,1.22,1.27,.08,2.55,.12,3.85,.12,11.52,0,20.28-2.6,26.29-7.8,6.01-5.2,9.01-12.01,9.01-20.44,0-3.46-.53-6.56-1.58-9.29-1.04-2.74-2.22-4.94-3.52-6.61Zm-18.59-43.15c2.26,.11,3.91,1.91,3.81,4.15-.1,2.25-1.92,3.9-4.17,3.8-2.22-.1-3.94-1.96-3.85-4.16,.1-2.19,1.99-3.89,4.21-3.79Z"/></g></svg>