<?xml version="1.0" encoding="UTF-8" standalone="no"?>
<svg
   version="1.1"
   viewBox="0.0 0.0 800.0 600.0"
   fill="none"
   stroke="none"
   stroke-linecap="square"
   stroke-miterlimit="10"
   id="svg41"
   sodipodi:docname="conda-store-logo-vertical-lockup-white.emf.svg"
   xmlns:inkscape="http://www.inkscape.org/namespaces/inkscape"
   xmlns:sodipodi="http://sodipodi.sourceforge.net/DTD/sodipodi-0.dtd"
   xmlns="http://www.w3.org/2000/svg"
   xmlns:svg="http://www.w3.org/2000/svg">
  <defs
     id="defs45" />
  <sodipodi:namedview
     id="namedview43"
     pagecolor="#ffffff"
     bordercolor="#000000"
     borderopacity="0.25"
     inkscape:showpageshadow="2"
     inkscape:pageopacity="0.0"
     inkscape:pagecheckerboard="0"
     inkscape:deskcolor="#d1d1d1" />
  <clipPath
     id="p.0">
    <path
       d="m0 0l800.0 0l0 600.0l-800.0 0l0 -600.0z"
       clip-rule="nonzero"
       id="path2" />
  </clipPath>
  <g
     clip-path="url(#p.0)"
     id="g39">
    <path
       fill="#000000"
       fill-opacity="0.0"
       d="m0 0l800.0 0l0 600.0l-800.0 0z"
       fill-rule="evenodd"
       id="path5" />
    <path
       fill="#ffffff"
       d="m414.13647 451.82416l0 9.8871155l17.926514 0c0 0 -3.417328 -4.065613 -3.2335815 -5.2677c0.18371582 -1.1102295 3.2335815 -4.6194153 3.2335815 -4.6194153z"
       fill-rule="evenodd"
       id="path7" />
    <path
       fill="#ffffff"
       d="m202.52756 441.56693c-5.913391 0 -10.719162 1.8477783 -14.414703 5.4514465c-3.7900238 3.6955261 -5.637787 8.409454 -5.637787 14.136475c0 5.821533 1.8477631 10.535431 5.545929 14.230988c3.6036682 3.6036682 8.314957 5.359558 14.044617 5.359558c3.6036835 0 6.8372803 -0.5538025 9.703415 -1.8477478c2.8635254 -1.2939758 5.173233 -2.8635254 6.929138 -4.897644l-6.8372803 -6.1915894c-2.3097076 2.5879211 -5.2677155 3.8818665 -8.871384 3.8818665c-3.0498657 0 -5.4514465 -0.92385864 -7.391083 -2.9580078c-1.8503876 -1.9396057 -2.8661346 -4.5275574 -2.8661346 -7.577423c0 -3.0472412 0.92388916 -5.5433044 2.8661346 -7.4829407c1.8477783 -1.9422607 4.249344 -2.9580078 7.299225 -2.9580078c3.6036682 0 6.561676 1.3858337 8.871384 4.0656433l6.837265 -5.913391c-1.8477631 -2.309723 -4.2519684 -4.157501 -7.1154785 -5.3595886c-2.8635101 -1.2939758 -5.821518 -1.9396362 -8.963257 -1.9396362z"
       fill-rule="evenodd"
       id="path9" />
    <path
       fill="#ffffff"
       d="m243.92651 450.7139c2.8635101 0 5.265091 0.92388916 7.112854 2.8635254c1.8504028 1.9422607 2.7742767 4.530182 2.7742767 7.577423c0 3.0498657 -0.9238739 5.6378174 -2.8661346 7.577423c-1.8477783 1.9422607 -4.157486 2.9580078 -7.020996 2.9580078c-2.86615 0 -5.1758575 -1.0157471 -7.0236206 -3.0498657c-1.8477783 -2.0314941 -2.86615 -4.4356995 -2.86615 -7.485565c0 -2.9553833 0.9265137 -5.4514465 2.7742767 -7.4829407c1.8477783 -1.9422607 4.249344 -2.9580078 7.115494 -2.9580078zm0 -9.146973c-5.9160156 0 -10.81366 1.8477783 -14.509186 5.5433044c-3.6955414 3.6955566 -5.6351776 8.409454 -5.6351776 14.044617c0 5.7296753 1.8477783 10.443573 5.6351776 14.13913c3.6955261 3.6955261 8.59317 5.451416 14.509186 5.451416c5.913376 0 10.81102 -1.7558899 14.598419 -5.451416c3.790039 -3.6036987 5.637787 -8.317596 5.637787 -14.13913c0 -5.8215027 -1.8477478 -10.532806 -5.637787 -14.136475c-3.7873993 -3.6036682 -8.59317 -5.4514465 -14.598419 -5.4514465z"
       fill-rule="evenodd"
       id="path11" />
    <path
       fill="#ffffff"
       d="m294.8399 441.56693c-4.989502 0 -9.055115 1.8477783 -12.196869 5.5433044l-0.09185791 0l0 -4.897644l-10.165344 0l0 37.979004l10.165344 0l0 -19.128601c0 -3.32547 0.74017334 -5.913391 2.309723 -7.669281c1.5721741 -1.8477783 3.6955261 -2.6798096 6.2834473 -2.6798096c2.4960632 0 4.3438416 0.74017334 5.545929 2.126007c1.1994934 1.3858032 1.7532959 3.879242 1.7532959 7.2991943l0 20.05249l10.257202 0l0 -22.545929c0 -10.719147 -4.6194153 -16.078735 -13.86087 -16.078735z"
       fill-rule="evenodd"
       id="path13" />
    <path
       fill="#ffffff"
       d="m336.33072 450.7139c2.8661194 0 5.2677 1.0157471 7.2073364 3.0498962c1.8477783 1.9396057 2.86615 4.5275574 2.86615 7.577423c0 3.0498657 -1.0183716 5.5433044 -2.86615 7.485565c-1.9396362 1.9396362 -4.341217 2.8634949 -7.2073364 2.8634949c-2.8635254 0 -5.1732483 -0.92385864 -7.0236206 -2.8634949c-1.7532959 -1.9422607 -2.6798096 -4.4356995 -2.6798096 -7.485565c0 -3.233612 0.9265137 -5.821533 2.774292 -7.763794c1.8477478 -1.9396362 4.065613 -2.8635254 6.929138 -2.8635254zm9.517059 -27.81363l0 23.5643l-0.27560425 0c-2.771637 -3.2362366 -6.561676 -4.897644 -11.367462 -4.897644c-5.173218 0 -9.425171 1.8477783 -12.842499 5.5433044c-3.4199524 3.6955566 -5.0839844 8.317596 -5.0839844 14.139099c0 5.821533 1.7558899 10.532837 5.1758423 14.136505c3.4199524 3.6036682 7.761139 5.359558 13.02887 5.359558c4.989502 0 8.871399 -1.6614075 11.643036 -5.173218l0.18374634 0l0 4.6194153l9.7034 0l0 -57.29132z"
       fill-rule="evenodd"
       id="path15" />
    <path
       fill="#ffffff"
       d="m384.19684 450.7139c2.7716675 0 5.084015 1.0157471 6.8372803 3.0498962c1.8504028 1.9396057 2.774292 4.5275574 2.774292 7.577423c0 3.0498657 -0.92388916 5.5433044 -2.774292 7.485565c-1.8477783 1.9396362 -4.1574707 2.8634949 -6.8372803 2.8634949c-2.8634949 0 -5.173218 -1.0157471 -7.0236206 -2.8634949c-1.8477478 -1.9422607 -2.771637 -4.2519836 -2.771637 -7.485565c0 -3.233612 0.92388916 -5.821533 2.86615 -7.763794c1.8477478 -1.9396362 4.2493286 -2.8635254 6.9291077 -2.8635254zm-2.1259766 -9.146973c-5.173218 0 -9.425201 1.8477783 -12.750641 5.5433044c-3.4199524 3.7874146 -5.175873 8.317596 -5.175873 14.139099c0 5.821533 1.7559204 10.532837 5.175873 14.136505c3.3254395 3.6036682 7.669281 5.4514465 13.02887 5.4514465c4.8976135 0 8.685028 -1.7532959 11.272949 -5.265106l0.27822876 0l0 4.6194153l9.608917 0l0 -37.979004l-10.070862 0l0 4.2519836l-0.27822876 0c-2.679779 -3.2362366 -6.375305 -4.897644 -11.089233 -4.897644z"
       fill-rule="evenodd"
       id="path17" />
    <path
       fill="#ffffff"
       d="m456.7349 441.56693c-3.9737244 0 -7.2073364 1.107605 -9.795258 3.1417236c-2.5852966 2.1233826 -3.8792725 4.897644 -3.8792725 8.223114c0 3.32547 1.0157471 5.913391 3.0498657 7.761139c2.0314941 1.8504028 4.897644 3.3280945 8.59317 4.6220703c2.6798096 0.83200073 4.4356995 1.5695496 5.4514465 2.123352c1.0157471 0.556427 1.4776917 1.2020874 1.4776917 2.0341187c0 1.0157471 -0.46194458 1.7558899 -1.2939453 2.309723c-0.82940674 0.5538025 -1.9396362 0.83200073 -3.417328 0.83200073c-3.881897 0 -7.3018494 -1.4776917 -10.443573 -4.4356995l-4.989502 7.115509c4.251953 3.6955261 9.425201 5.451416 15.433075 5.451416c4.8057556 0 8.409454 -1.0157471 10.994751 -3.2335815c2.4960632 -2.2178345 3.6981506 -4.989502 3.6981506 -8.59317c0 -1.3858337 -0.18634033 -2.6798096 -0.6482849 -3.881897c-0.37008667 -1.107605 -0.92388916 -2.0314941 -1.4776917 -2.679779c-0.46194458 -0.74017334 -1.4776917 -1.4776917 -2.7716675 -2.217865c-1.3858032 -0.7401428 -2.5879211 -1.2939453 -3.5118103 -1.7558899c-1.0157471 -0.37008667 -2.4960632 -0.92388916 -4.62204 -1.7559204c-2.0314941 -0.7375183 -3.5091858 -1.3858337 -4.341217 -2.0314941c-0.92385864 -0.556427 -1.3858032 -1.2020874 -1.3858032 -1.9422607c0 -0.92388916 0.36743164 -1.6614075 1.107605 -2.2178345c0.83203125 -0.46194458 1.664032 -0.6456604 2.5879211 -0.6456604c3.233612 0 6.283478 1.2939453 9.146973 3.973755l4.897644 -7.3937073c-4.065613 -3.233612 -8.685028 -4.8031616 -13.860901 -4.8031616z"
       fill-rule="evenodd"
       id="path19" />
    <path
       fill="#ffffff"
       d="m490.55643 428.72177l-10.165344 1.0157471l0 12.475067l-4.4356995 0l0 8.409454l4.4356995 0l0 17.556427c0 4.157501 1.0183716 7.299225 2.9580078 9.425201c1.8477478 2.1259766 4.5275574 3.1417236 7.852997 3.1417236c3.881897 0 7.3018494 -0.7375183 10.165375 -2.3096924l-2.6798096 -8.131226c-1.7558899 0.83200073 -3.3254395 1.2939453 -4.8057556 1.2939453c-2.217865 0 -3.32547 -1.664032 -3.32547 -4.8057556l0 -16.170624l10.349091 0l0 -8.409454l-10.349091 0l0 -13.490814z"
       fill-rule="evenodd"
       id="path21" />
    <path
       fill="#ffffff"
       d="m524.65356 450.7139c2.86615 0 5.2677 0.92388916 7.1154785 2.8635254c1.8477783 1.9422607 2.7716675 4.530182 2.7716675 7.577423c0 3.0498657 -0.92388916 5.6378174 -2.7716675 7.577423c-1.9396362 1.9422607 -4.2493286 2.9580078 -7.0236206 2.9580078c-2.8635254 0 -5.2651367 -1.0157471 -7.1154785 -3.0498657c-1.8477783 -2.0314941 -2.7716675 -4.4356995 -2.7716675 -7.485565c0 -2.9553833 0.92388916 -5.4514465 2.6798096 -7.4829407c1.8477173 -1.9422607 4.343811 -2.9580078 7.1154785 -2.9580078zm0.09185791 -9.146973c-6.005249 0 -10.811035 1.8477783 -14.59845 5.5433044c-3.6981506 3.6955566 -5.545929 8.409454 -5.545929 14.044617c0 5.7296753 1.8477783 10.443573 5.545929 14.13913c3.7874146 3.6955261 8.593201 5.451416 14.59845 5.451416c5.821533 0 10.719116 -1.7558899 14.509155 -5.451416c3.7874146 -3.6036987 5.635193 -8.317596 5.635193 -14.13913c0 -5.8215027 -1.8477783 -10.532806 -5.635193 -14.136475c-3.790039 -3.6036682 -8.59314 -5.4514465 -14.509155 -5.4514465z"
       fill-rule="evenodd"
       id="path23" />
    <path
       fill="#ffffff"
       d="m574.8294 441.56693c-4.7113037 0 -8.501343 2.123352 -11.456726 6.283478l-0.09185791 0l0 -5.6378174l-10.165344 0l0 37.979004l10.165344 0l0 -17.648285c0 -2.9580078 0.82940674 -5.2677 2.5853271 -7.1154785c1.6640625 -1.8504028 4.065613 -2.774292 7.1154785 -2.774292c1.1102295 0 1.9422607 0 2.6798096 0.09448242l0 -11.089233c-0.09185791 0 -0.3701172 -0.09185791 -0.83203125 -0.09185791z"
       fill-rule="evenodd"
       id="path25" />
    <path
       fill="#ffffff"
       d="m598.3937 450.53018c4.343872 0 7.0236206 2.2178345 8.223145 6.653534l-16.724426 0c0.553772 -2.1259766 1.5721436 -3.7900085 3.0498657 -4.8976135c1.5695801 -1.2021179 3.3254395 -1.7559204 5.451416 -1.7559204zm-0.27819824 -8.963257c-5.451416 0 -9.887146 1.8477783 -13.490784 5.5433044c-3.5118408 3.6036682 -5.267761 8.131226 -5.267761 14.044617c0 5.821533 1.7559204 10.535431 5.4541016 14.230988c3.6955566 3.6036682 8.406799 5.359558 14.044617 5.359558c7.1154785 0 12.566895 -2.3096924 16.356934 -7.1154785l-6.5616455 -6.097107c-2.4016113 2.8635254 -5.451477 4.249359 -9.146973 4.249359c-2.4042358 0 -4.5302124 -0.6456909 -6.1916504 -1.9396362c-1.7558594 -1.2939758 -2.86615 -3.1417542 -3.5117798 -5.3595886l26.706055 0c0.09185791 -0.46194458 0.18371582 -1.664032 0.18371582 -3.6955261c0 -5.5459595 -1.7559204 -10.165375 -5.1758423 -13.769043c-3.4173584 -3.6036682 -7.9448853 -5.4514465 -13.398987 -5.4514465z"
       fill-rule="evenodd"
       id="path27" />
    <path
       fill="#ffffff"
       d="m293.39108 194.6378c-5.102356 0 -8.343842 4.0734863 -8.343842 11.477676c0 16.540695 0 32.989502 0 49.530197c0 16.540665 0.18371582 33.081345 0 49.622055c-0.09448242 5.6351624 1.8477783 9.238831 7.020996 11.826752c29.293976 14.692932 58.40158 29.664062 87.509186 44.448822c2.118103 1.0708618 4.118103 1.5774231 5.9212646 1.5774231c5.0341187 0 8.493439 -3.9632568 8.493439 -10.635162c0 -32.06299 -0.09185791 -64.1286 0.09185791 -96.2861c0 -5.3595734 -2.123352 -8.59317 -6.745392 -11.181091c-28.829407 -15.89238 -57.661438 -32.065613 -86.58267 -48.144363c-2.7191772 -1.5091858 -5.207367 -2.236206 -7.3648376 -2.236206z"
       fill-rule="evenodd"
       id="path29" />
    <path
       fill="#ffffff"
       d="m505.81366 194.6378c-2.1575012 0 -4.6588135 0.72702026 -7.401581 2.236206c-28.832031 16.07875 -57.661407 32.251984 -86.5853 48.144363c-4.619446 2.5879211 -6.7454224 5.821518 -6.7454224 11.181091c0.18374634 32.1575 0.09185791 64.223114 0.18374634 96.2861c0 6.6719055 3.4592896 10.635162 8.45929 10.635162c1.7874146 0 3.7716675 -0.5065613 5.8635254 -1.5774231c29.202118 -14.7847595 58.309723 -29.75589 87.509186 -44.448822c5.1758423 -2.5879211 7.2073364 -6.1915894 7.1154785 -11.826752c-0.18634033 -16.54071 -0.09185791 -33.08139 -0.09185791 -49.622055c0 -16.540695 0 -32.989502 0 -49.530197c0 -7.40419 -3.1968384 -11.477676 -8.307068 -11.477676z"
       fill-rule="evenodd"
       id="path31" />
    <path
       fill="#ffffff"
       d="m438.62466 117.220474l0 9.887138l17.834656 0c0 0 -3.0498657 -3.5091858 -3.2362366 -4.619423c-0.18371582 -1.1076126 3.2362366 -5.2677155 3.2362366 -5.2677155z"
       fill-rule="evenodd"
       id="path33" />
    <path
       fill="#000000"
       fill-opacity="0.0"
       d="m414.2362 109.54855c-2.5065613 0 -4.5380554 1.9081421 -4.627289 4.3464584c-0.18371582 2.5879288 1.8477783 4.7112885 4.4356995 4.8057785c0.06298828 0 0.12335205 0.0026245117 0.18371582 0.0026245117c2.4986877 0 4.4409485 -1.8215256 4.6220703 -4.3464584c0.09185791 -2.5879288 -1.8477783 -4.713913 -4.4356995 -4.8057785c-0.06036377 -0.0026245117 -0.11810303 -0.0026245117 -0.17849731 -0.0026245117z"
       fill-rule="evenodd"
       id="path35" />
    <path
       fill="#ffffff"
       d="m414.2362 109.54855c0.060394287 0 0.118133545 0 0.17849731 0.0026245117c2.5879211 0.09186554 4.5275574 2.2178497 4.4356995 4.8057785c-0.17849731 2.4724426 -2.0419922 4.354332 -4.4671936 4.354332c-0.11022949 0 -0.22573853 -0.0026245117 -0.33859253 -0.010498047c-2.5879211 -0.09449005 -4.6194153 -2.2178497 -4.5275574 -4.8057785c0.18109131 -2.4383163 2.2125854 -4.3464584 4.7191467 -4.3464584zm-12.978973 -7.4986877c-3.2651062 0 -5.503937 0.30971527 -6.5249634 0.47769165c-8.317566 0.8320236 -15.341187 3.6036758 -21.16272 8.409447c-7.2073364 5.72966 -10.719147 13.307091 -10.719147 22.640419c0 9.238846 2.7742615 16.262466 8.409454 21.346466c5.637787 5.08136 13.585297 9.330704 23.748016 12.750656c7.3018494 2.3097076 12.291351 4.2519684 15.062988 5.821518c2.6798096 1.5721741 4.065613 3.5118103 4.065613 5.72966c0 2.5879211 -1.2020874 4.7112885 -3.5118103 6.2834625c-2.2178345 1.5695496 -5.359558 2.3097076 -9.425201 2.3097076c-1.664032 0 -3.4172974 -0.09185791 -5.08136 -0.275589c-11.089233 -0.832016 -19.498688 -2.0341187 -30.587921 -2.9580078c-0.14697266 -0.007873535 -0.28347778 -0.013122559 -0.40945435 -0.013122559c-1.225708 0 -1.5301819 0.42782593 -1.5301819 1.7690277c0.18637085 11.734909 9.149597 20.884521 20.792664 22.454071c2.123352 0.2782135 7.577423 1.3858337 12.196838 1.4776917c1.4776917 0.09448242 2.9553833 0.09448242 4.4356995 0.09448242c13.307098 0 23.37796 -2.9579926 30.40158 -8.963242c6.929138 -6.0078735 10.349091 -13.955383 10.349091 -23.656174c0 -3.973755 -0.553833 -7.577423 -1.8477783 -10.719162c-1.2021179 -3.1417236 -2.4960632 -5.72966 -4.065613 -7.671921c-1.4803162 -1.939621 -4.065613 -3.8792572 -7.763794 -6.005249c-3.787384 -2.0341187 -6.929138 -3.6036682 -9.700775 -4.711273c-2.6798096 -1.1102448 -6.9317627 -2.6797943 -12.661438 -4.805786c-5.5433044 -2.1259766 -9.608917 -4.065613 -12.10498 -5.72966c-2.4934387 -1.5721741 -3.787384 -3.4199371 -3.787384 -5.4514313c0 -2.5879364 1.107605 -4.5275574 3.2335815 -5.913391c2.0341187 -1.2939606 4.3438416 -1.9422607 6.8372803 -2.0341187c10.165344 0.645668 22.178467 1.8477631 32.065613 2.4015732c0.13909912 0.007873535 0.2703247 0.013122559 0.39370728 0.013122559c1.4173279 0 1.7243958 -0.5144348 1.6404114 -2.0446167c-0.7401428 -12.196854 -9.981628 -20.144363 -21.994751 -22.178482c-0.92388916 -0.18372345 -2.123352 -0.275589 -3.417328 -0.37007904c-2.8215027 -0.35695648 -5.2808228 -0.47769165 -7.3359375 -0.47769165z"
       fill-rule="evenodd"
       id="path37" />
  </g>
</svg>
