<?xml version="1.0" encoding="UTF-8" standalone="no"?>
<svg
   version="1.1"
   viewBox="0.0 0.0 997.2650918635171 446.6955380577428"
   fill="none"
   stroke="none"
   stroke-linecap="square"
   stroke-miterlimit="10"
   id="svg41"
   sodipodi:docname="conda-store-logo-horizontal-lockup-white.emf.svg"
   xmlns:inkscape="http://www.inkscape.org/namespaces/inkscape"
   xmlns:sodipodi="http://sodipodi.sourceforge.net/DTD/sodipodi-0.dtd"
   xmlns="http://www.w3.org/2000/svg"
   xmlns:svg="http://www.w3.org/2000/svg">
  <defs
     id="defs45" />
  <sodipodi:namedview
     id="namedview43"
     pagecolor="#ffffff"
     bordercolor="#000000"
     borderopacity="0.25"
     inkscape:showpageshadow="2"
     inkscape:pageopacity="0.0"
     inkscape:pagecheckerboard="0"
     inkscape:deskcolor="#d1d1d1" />
  <clipPath
     id="p.0">
    <path
       d="m0 0l997.2651 0l0 446.69553l-997.2651 0l0 -446.69553z"
       clip-rule="nonzero"
       id="path2" />
  </clipPath>
  <g
     clip-path="url(#p.0)"
     id="g39">
    <path
       fill="#000000"
       fill-opacity="0.0"
       d="m0 0l997.2651 0l0 446.69553l-997.2651 0z"
       fill-rule="evenodd"
       id="path5" />
    <path
       fill="#ffffff"
       d="m668.7195 222.45587l0 13.165726l23.87091 0c0 0 -4.550476 -5.413788 -4.305847 -7.014496c0.24468994 -1.4783936 4.305847 -6.15123 4.305847 -6.15123z"
       fill-rule="evenodd"
       id="path7" />
    <path
       fill="#ffffff"
       d="m386.94104 208.79736c-7.8742676 0 -14.273651 2.460495 -19.19461 7.25914c-5.046814 4.92099 -7.5072937 11.198029 -7.5072937 18.824142c0 7.751938 2.4604797 14.028992 7.3849487 18.949966c4.798645 4.7986603 11.072205 7.1368256 18.701813 7.1368256c4.7986755 0 9.104523 -0.7374573 12.921082 -2.4605103c3.8130493 -1.7230225 6.888672 -3.8130493 9.226837 -6.5216827l-9.104523 -8.244736c-3.0756226 3.4460754 -7.014496 5.1691284 -11.813141 5.1691284c-4.0612183 0 -7.2591553 -1.2302551 -9.841949 -3.9388885c-2.4639893 -2.5828094 -3.8165588 -6.0289 -3.8165588 -10.090103c0 -4.0577087 1.2302551 -7.3814697 3.8165588 -9.964279c2.4604797 -2.5863037 5.6584167 -3.9388733 9.719635 -3.9388733c4.798645 0 8.737518 1.8453522 11.813141 5.4137726l9.104492 -7.8742676c-2.4604797 -3.0756073 -5.6619263 -5.5361023 -9.474976 -7.1368256c-3.8130493 -1.7230377 -7.7519226 -2.5828094 -11.935455 -2.5828094z"
       fill-rule="evenodd"
       id="path9" />
    <path
       fill="#ffffff"
       d="m442.06787 220.9775c3.8130493 0 7.0109863 1.2302399 9.471497 3.8130493c2.4639587 2.586319 3.6942139 6.0323944 3.6942139 10.090103c0 4.061203 -1.2302551 7.5072937 -3.8165588 10.090103c-2.4604797 2.586319 -5.5361023 3.9388885 -9.349152 3.9388885c-3.8165588 0 -6.892151 -1.3525696 -9.352661 -4.0612183c-2.4604797 -2.7051392 -3.8165588 -5.9065704 -3.8165588 -9.967773c0 -3.935379 1.2337646 -7.25914 3.6942444 -9.964279c2.4604797 -2.5863037 5.6584167 -3.9388733 9.474976 -3.9388733zm0 -12.18013c-7.8777466 0 -14.399445 2.460495 -19.320435 7.3814697c-4.92099 4.9209747 -7.503784 11.198029 -7.503784 18.701813c0 7.6296234 2.4604797 13.906662 7.503784 18.827637c4.92099 4.92099 11.442688 7.2591553 19.320435 7.2591553c7.8742676 0 14.395966 -2.3381653 19.43927 -7.2591553c5.0467834 -4.798645 7.5072937 -11.075699 7.5072937 -18.827637c0 -7.751938 -2.4605103 -14.025482 -7.5072937 -18.824142c-5.0433044 -4.798645 -11.442688 -7.25914 -19.43927 -7.25914z"
       fill-rule="evenodd"
       id="path11" />
    <path
       fill="#ffffff"
       d="m509.86414 208.79736c-6.6440125 0 -12.0578 2.460495 -16.241333 7.3814697l-0.12231445 0l0 -6.521698l-13.536194 0l0 50.572845l13.536194 0l0 -25.471664c0 -4.428177 0.9855957 -7.8742523 3.075592 -10.212418c2.0935364 -2.460495 4.92099 -3.5684052 8.367065 -3.5684052c3.323761 0 5.7842712 0.98558044 7.3849792 2.8309479c1.597229 1.8453674 2.3346558 5.165634 2.3346558 9.719635l0 26.701904l13.658508 0l0 -30.022171c0 -14.273621 -6.151184 -21.410446 -18.457153 -21.410446z"
       fill-rule="evenodd"
       id="path13" />
    <path
       fill="#ffffff"
       d="m565.1133 220.9775c3.8165894 0 7.0145264 1.3525696 9.597351 4.061203c2.4604492 2.5828094 3.8165283 6.0289 3.8165283 10.090103c0 4.061203 -1.3560791 7.3814697 -3.8165283 9.967773c-2.5828247 2.5828094 -5.7807617 3.8130646 -9.597351 3.8130646c-3.8130493 0 -6.888672 -1.2302551 -9.352661 -3.8130646c-2.3346558 -2.5863037 -3.5683594 -5.9065704 -3.5683594 -9.967773c0 -4.3058624 1.2337036 -7.751938 3.6942139 -10.338257c2.4605103 -2.5828094 5.4137573 -3.8130493 9.226807 -3.8130493zm12.672913 -37.036667l0 31.378235l-0.36694336 0c-3.6907349 -4.3093567 -8.737549 -6.521698 -15.136902 -6.521698c-6.888672 0 -12.550598 2.460495 -17.101135 7.3814697c-4.553955 4.9209747 -6.7698364 11.075699 -6.7698364 18.827637c0 7.751938 2.3381958 14.025482 6.892212 18.824142c4.553955 4.7986603 10.334717 7.1368256 17.349243 7.1368256c6.643982 0 11.81311 -2.2123413 15.503845 -6.888687l0.24468994 0l0 6.15123l12.9210205 0l0 -76.289154z"
       fill-rule="evenodd"
       id="path15" />
    <path
       fill="#ffffff"
       d="m628.85187 220.9775c3.6907349 0 6.7698364 1.3525696 9.104492 4.061203c2.4639893 2.5828094 3.6942139 6.0289 3.6942139 10.090103c0 4.061203 -1.2302246 7.3814697 -3.6942139 9.967773c-2.4605103 2.5828094 -5.536072 3.8130646 -9.104492 3.8130646c-3.8130493 0 -6.888672 -1.3525696 -9.352661 -3.8130646c-2.4605103 -2.5863037 -3.6907349 -5.6619263 -3.6907349 -9.967773c0 -4.3058624 1.2302246 -7.751938 3.8165283 -10.338257c2.4605103 -2.5828094 5.6584473 -3.8130493 9.226868 -3.8130493zm-2.8309937 -12.18013c-6.888672 0 -12.550598 2.460495 -16.97876 7.3814697c-4.554016 5.0433044 -6.892151 11.075699 -6.892151 18.827637c0 7.751938 2.3381348 14.025482 6.892151 18.824142c4.4281616 4.7986603 10.212463 7.25914 17.349243 7.25914c6.5217285 0 11.565002 -2.3346558 15.011108 -7.0110016l0.3704834 0l0 6.15123l12.795227 0l0 -50.572845l-13.4104 0l0 5.6619263l-0.37042236 0c-3.5684204 -4.3093567 -8.489441 -6.521698 -14.7664795 -6.521698z"
       fill-rule="evenodd"
       id="path17" />
    <path
       fill="#ffffff"
       d="m725.44354 208.79736c-5.291443 0 -9.59729 1.4748993 -13.043396 4.1835327c-3.442566 2.8274689 -5.1656494 6.521698 -5.1656494 10.949875c0 4.428177 1.3526001 7.8742676 4.0612183 10.334763c2.7051392 2.463974 6.5217285 4.431671 11.442688 6.154709c3.5684204 1.1079254 5.906555 2.0900269 7.2591553 2.8274689c1.3525391 0.7409363 1.9676514 1.600708 1.9676514 2.7086334c0 1.3525696 -0.6151123 2.3381653 -1.7230225 3.0756073c-1.1044312 0.7374573 -2.5828247 1.1079254 -4.550537 1.1079254c-5.1690674 0 -9.7230835 -1.9676971 -13.906616 -5.9065704l-6.644043 9.474976c5.6619263 4.92099 12.550598 7.2591553 20.55066 7.2591553c6.399414 0 11.198059 -1.3525696 14.640625 -4.3058777c3.3237915 -2.9532776 4.9244995 -6.6440125 4.9244995 -11.442657c0 -1.8453674 -0.24816895 -3.5684204 -0.86328125 -5.1691284c-0.49279785 -1.4748993 -1.2302246 -2.7051392 -1.9677124 -3.5684052c-0.6151123 -0.9855957 -1.9676514 -1.9676971 -3.6907349 -2.9532928c-1.8453369 -0.9855957 -3.446045 -1.7230377 -4.6763306 -2.3381653c-1.3525391 -0.49279785 -3.3237305 -1.2302399 -6.154663 -2.3381653c-2.7051392 -0.9820862 -4.6728516 -1.8453674 -5.7807617 -2.7051392c-1.2302856 -0.7409363 -1.845398 -1.600708 -1.845398 -2.5863037c0 -1.2302399 0.48931885 -2.2123413 1.4749146 -2.9532928c1.1079102 -0.6151123 2.2158203 -0.8597717 3.446106 -0.8597717c4.305847 0 8.367004 1.7230377 12.180115 5.291458l6.5216675 -9.845459c-5.4137573 -4.305847 -11.565002 -6.395874 -18.457153 -6.395874z"
       fill-rule="evenodd"
       id="path19" />
    <path
       fill="#ffffff"
       d="m770.4803 191.69276l-13.536194 1.3525696l0 16.611801l-5.906555 0l0 11.198029l5.906555 0l0 23.378143c0 5.5361023 1.3560791 9.719635 3.9389038 12.550598c2.4604492 2.8309631 6.0288696 4.1835327 10.457031 4.1835327c5.1691284 0 9.723145 -0.9821167 13.536194 -3.0756226l-3.5684204 -10.827545c-2.3381348 1.1079102 -4.4281616 1.7230377 -6.399353 1.7230377c-2.953308 0 -4.4281616 -2.2158356 -4.4281616 -6.3993683l0 -21.532776l13.780823 0l0 -11.198029l-13.780823 0l0 -17.96437z"
       fill-rule="evenodd"
       id="path21" />
    <path
       fill="#ffffff"
       d="m815.884 220.9775c3.8165894 0 7.0145264 1.2302399 9.474976 3.8130493c2.4605103 2.586319 3.6907349 6.0323944 3.6907349 10.090103c0 4.061203 -1.2302246 7.5072937 -3.6907349 10.090103c-2.5827637 2.586319 -5.658386 3.9388885 -9.352661 3.9388885c-3.8130493 0 -7.0109863 -1.3525696 -9.474976 -4.0612183c-2.4604492 -2.7051392 -3.6907349 -5.9065704 -3.6907349 -9.967773c0 -3.935379 1.2302856 -7.25914 3.5684204 -9.964279c2.4605103 -2.5863037 5.7842407 -3.9388733 9.474976 -3.9388733zm0.12231445 -12.18013c-7.996582 0 -14.395935 2.460495 -19.439209 7.3814697c-4.9244995 4.9209747 -7.38501 11.198029 -7.38501 18.701813c0 7.6296234 2.4605103 13.906662 7.38501 18.827637c5.043274 4.92099 11.442627 7.2591553 19.439209 7.2591553c7.751953 0 14.273682 -2.3381653 19.320435 -7.2591553c5.043335 -4.798645 7.503845 -11.075699 7.503845 -18.827637c0 -7.751938 -2.4605103 -14.025482 -7.503845 -18.824142c-5.046753 -4.798645 -11.442627 -7.25914 -19.320435 -7.25914z"
       fill-rule="evenodd"
       id="path23" />
    <path
       fill="#ffffff"
       d="m882.6982 208.79736c-6.2735596 0 -11.320374 2.8274689 -15.255737 8.367065l-0.12237549 0l0 -7.5072937l-13.536133 0l0 50.572845l13.536133 0l0 -23.500473c0 -3.9388733 1.1044312 -7.014496 3.442627 -9.474976c2.2158203 -2.4639893 5.4137573 -3.6942291 9.474976 -3.6942291c1.4783936 0 2.5863037 0 3.5684204 0.12582397l0 -14.766434c-0.12231445 0 -0.49279785 -0.12232971 -1.1079102 -0.12232971z"
       fill-rule="evenodd"
       id="path25" />
    <path
       fill="#ffffff"
       d="m914.07635 220.73283c5.7843018 0 9.352661 2.9532928 10.94989 8.859863l-22.270203 0c0.73742676 -2.8309631 2.0935059 -5.0467987 4.0612183 -6.521698c2.0900269 -1.6007233 4.4281616 -2.3381653 7.259094 -2.3381653zm-0.37042236 -11.935471c-7.2591553 0 -13.16571 2.460495 -17.964417 7.3814697c-4.6762695 4.7986603 -7.0144653 10.827545 -7.0144653 18.701813c0 7.751938 2.3381958 14.028992 7.2626343 18.949966c4.9209595 4.7986603 11.194519 7.1368256 18.701843 7.1368256c9.474976 0 16.73407 -3.0756226 21.780884 -9.474991l-8.737488 -8.118912c-3.197937 3.8130493 -7.2591553 5.6584167 -12.180176 5.6584167c-3.201416 0 -6.0323486 -0.8597717 -8.24469 -2.5828094c-2.3381958 -1.7230377 -3.8165894 -4.1835327 -4.6763306 -7.1368103l35.561768 0c0.12231445 -0.61512756 0.2446289 -2.2158508 0.2446289 -4.92099c0 -7.384964 -2.3381958 -13.536179 -6.892151 -18.334839c-4.550537 -4.798645 -10.579407 -7.25914 -17.842041 -7.25914z"
       fill-rule="evenodd"
       id="path27" />
    <path
       fill="#ffffff"
       d="m77.703415 194.92126c-5.1023636 0 -8.343834 4.0734863 -8.343834 11.477692c0 16.54068 0 32.989502 0 49.53018c0 16.54068 0.18372345 33.08136 0 49.62204c-0.09449005 5.6351624 1.8477707 9.238861 7.020996 11.826782c29.29396 14.692902 58.401573 29.664032 87.50919 44.448822c2.118103 1.0708618 4.118103 1.5774231 5.9212494 1.5774231c5.0341187 0 8.493439 -3.9632568 8.493439 -10.635162c0 -32.06302 -0.09185791 -64.12863 0.09187317 -96.2861c0 -5.3595886 -2.1233673 -8.59317 -6.745407 -11.181107c-28.829407 -15.89238 -57.661423 -32.065613 -86.58268 -48.14435c-2.719162 -1.5091858 -5.2073517 -2.2362213 -7.36483 -2.2362213z"
       fill-rule="evenodd"
       id="path29" />
    <path
       fill="#ffffff"
       d="m290.12598 194.92126c-2.1574707 0 -4.658783 0.7270355 -7.401581 2.2362213c-28.832 16.078735 -57.661407 32.25197 -86.58528 48.14435c-4.6194305 2.5879364 -6.745407 5.821518 -6.745407 11.181107c0.18371582 32.15747 0.09185791 64.22308 0.18371582 96.2861c0 6.6719055 3.45932 10.635162 8.45932 10.635162c1.7873993 0 3.7716522 -0.5065613 5.8635254 -1.5774231c29.202087 -14.78479 58.309692 -29.75592 87.509186 -44.448822c5.1758423 -2.5879211 7.2073364 -6.19162 7.1154785 -11.826782c-0.18634033 -16.54068 -0.09185791 -33.08136 -0.09185791 -49.62204c0 -16.54068 0 -32.989502 0 -49.53018c0 -7.4042053 -3.196869 -11.477692 -8.307098 -11.477692z"
       fill-rule="evenodd"
       id="path31" />
    <path
       fill="#ffffff"
       d="m222.93701 117.50394l0 9.887138l17.83464 0c0 0 -3.0498657 -3.5091858 -3.2362213 -4.619423c-0.18373108 -1.1076126 3.2362213 -5.2677155 3.2362213 -5.2677155z"
       fill-rule="evenodd"
       id="path33" />
    <path
       fill="#000000"
       fill-opacity="0.0"
       d="m198.54855 109.83202c-2.5065613 0 -4.5380554 1.9081345 -4.627289 4.346451c-0.18373108 2.5879288 1.8477631 4.7112885 4.435684 4.8057785c0.06300354 0 0.12336731 0.0026245117 0.18373108 0.0026245117c2.4986877 0 4.4409485 -1.8215256 4.622055 -4.3464584c0.09185791 -2.5879288 -1.8477783 -4.713913 -4.4356995 -4.805771c-0.06036377 -0.0026245117 -0.118118286 -0.0026245117 -0.17848206 -0.0026245117z"
       fill-rule="evenodd"
       id="path35" />
    <path
       fill="#ffffff"
       d="m198.54855 109.83202c0.06036377 0 0.118118286 0 0.17848206 0.0026245117c2.5879211 0.09185791 4.5275574 2.217842 4.4356995 4.805771c-0.17848206 2.4724426 -2.0420074 4.354332 -4.4671936 4.354332c-0.11024475 0 -0.22572327 -0.0026245117 -0.33859253 -0.010498047c-2.5879211 -0.09449005 -4.6194153 -2.2178497 -4.5275574 -4.8057785c0.18110657 -2.4383163 2.2126007 -4.346451 4.719162 -4.346451zm-12.979004 -7.4986877c-3.265091 0 -5.503937 0.30970764 -6.524933 0.47768402c-8.317581 0.8320236 -15.341202 3.6036758 -21.16272 8.409454c-7.2073517 5.72966 -10.719162 13.307083 -10.719162 22.640411c0 9.238846 2.7742767 16.262466 8.409439 21.346466c5.637802 5.08136 13.585312 9.330704 23.748032 12.750656c7.301834 2.3097076 12.291336 4.2519684 15.063004 5.821518c2.679779 1.5721741 4.065613 3.5118103 4.065613 5.72966c0 2.5879211 -1.2021027 4.7112885 -3.5118103 6.2834625c-2.2178497 1.5695496 -5.3595886 2.3097076 -9.425201 2.3097076c-1.6640472 0 -3.417328 -0.09185791 -5.08136 -0.275589c-11.089249 -0.832016 -19.498688 -2.0341187 -30.587936 -2.9580078c-0.14697266 -0.007873535 -0.28346252 -0.013122559 -0.4094391 -0.013122559c-1.2257233 0 -1.5301819 0.42782593 -1.5301819 1.7690277c0.18634033 11.734909 9.149597 20.884521 20.792648 22.454071c2.123352 0.2782135 7.577423 1.3858337 12.196854 1.4776917c1.4776764 0.09449768 2.955368 0.09449768 4.435684 0.09449768c13.307098 0 23.37796 -2.9580078 30.40158 -8.963257c6.929138 -6.0078735 10.349075 -13.955383 10.349075 -23.656174c0 -3.973755 -0.5538025 -7.577423 -1.8477631 -10.719162c-1.2021027 -3.1417236 -2.4960632 -5.72966 -4.065613 -7.6719055c-1.4803162 -1.9396362 -4.065628 -3.8792725 -7.7637787 -6.005249c-3.7874146 -2.034134 -6.929138 -3.6036835 -9.70079 -4.7112885c-2.6797943 -1.1102448 -6.9317627 -2.6797943 -12.661423 -4.805786c-5.5433044 -2.1259766 -9.608917 -4.065613 -12.10498 -5.729645c-2.4934387 -1.5721893 -3.7873993 -3.4199524 -3.7873993 -5.4514465c0 -2.5879364 1.107605 -4.5275574 3.2335968 -5.913391c2.0341187 -1.2939606 4.3438263 -1.9422531 6.837265 -2.0341187c10.1653595 0.645668 22.178482 1.8477707 32.065613 2.4015732c0.13911438 0.007873535 0.27033997 0.013122559 0.39370728 0.013122559c1.4173126 0 1.724411 -0.5144348 1.6404114 -2.0446167c-0.7401581 -12.196854 -9.981628 -20.144356 -21.994751 -22.178482c-0.9238739 -0.18372345 -2.123352 -0.275589 -3.4173126 -0.37007904c-2.8215332 -0.35694885 -5.2808533 -0.47768402 -7.335968 -0.47768402z"
       fill-rule="evenodd"
       id="path37" />
  </g>
</svg>
