<?xml version="1.0" encoding="UTF-8"?><svg id="Layer_1" xmlns="http://www.w3.org/2000/svg" viewBox="0 0 287.15 291"><defs><style>.cls-1{fill:#fff;}.cls-2{fill:#a8e29f;}.cls-3{fill:#40af2f;}</style></defs><path class="cls-3" d="M132.99,156.3c-25.03-13.82-49.97-27.79-74.97-41.67-7.98-4.43-13.58-1.14-13.59,7.95-.03,14.3,0,28.6,0,42.91s.1,28.61-.06,42.91c-.05,4.88,1.66,8.03,6.14,10.28,25.3,12.72,50.49,25.66,75.74,38.48,6.92,3.51,12.48,.03,12.48-7.81,.03-27.8-.06-55.59,.08-83.39,.03-4.66-1.84-7.47-5.81-9.66Z"/><path class="cls-2" d="M154.17,156.3c25.03-13.82,49.97-27.79,74.97-41.67,7.98-4.43,13.58-1.14,13.59,7.95,.03,14.3,.01,28.6,.01,42.91s-.1,28.61,.06,42.91c.05,4.88-1.66,8.03-6.14,10.28-25.3,12.72-50.49,25.66-75.74,38.48-6.92,3.51-12.48,.03-12.48-7.81-.03-27.8,.06-55.59-.08-83.39-.03-4.66,1.84-7.47,5.81-9.66Z"/><path class="cls-2" d="M192.83,45.66h-15.51v8.55h15.51s-2.67-3.03-2.84-4,2.84-4.55,2.84-4.55Z"/><path class="cls-1" d="M156.03,46.93c2.24,.1,4.06-1.55,4.17-3.8,.1-2.24-1.55-4.04-3.81-4.15-2.22-.11-4.11,1.6-4.2,3.79-.1,2.21,1.61,4.06,3.84,4.16Z"/><path class="cls-3" d="M174.99,82.13c-1.3-1.67-3.56-3.41-6.78-5.2s-6.01-3.16-8.36-4.09c-2.36-.93-6.01-2.32-10.96-4.18-4.83-1.86-8.33-3.5-10.5-4.92s-3.25-3-3.25-4.74c0-2.23,.93-3.93,2.79-5.11,1.78-1.13,3.74-1.7,5.87-1.75v-.07c8.84,.59,19.22,1.62,27.8,2.13,1.54,.09,1.86-.32,1.77-1.76-.64-10.54-8.63-17.48-19.04-19.2-.84-.14-1.87-.26-2.95-.36h0c-6.33-.8-10.57-.24-12.01,0-7.19,.76-13.31,3.18-18.36,7.27-6.2,5.02-9.29,11.55-9.29,19.6s2.45,14.09,7.34,18.49c4.89,4.4,11.73,8.08,20.53,11.06,6.32,1.98,10.65,3.66,13.01,5.02,2.35,1.36,3.53,3.04,3.53,5.02,0,2.23-.99,4.03-2.98,5.39-1.98,1.36-4.71,2.04-8.18,2.04-1.48,0-2.94-.1-4.38-.28-9.62-.7-16.9-1.75-26.52-2.5-1.32-.1-1.66,.2-1.64,1.5,.16,10.15,7.89,18.06,17.98,19.45,1.85,.25,6.56,1.18,10.53,1.22,1.27,.08,2.55,.12,3.85,.12,11.52,0,20.28-2.6,26.29-7.8,6.01-5.2,9.01-12.01,9.01-20.44,0-3.46-.53-6.56-1.58-9.29-1.04-2.74-2.22-4.94-3.52-6.61Zm-18.59-43.15c2.26,.11,3.91,1.91,3.81,4.15-.1,2.25-1.92,3.9-4.17,3.8-2.22-.1-3.94-1.96-3.85-4.16,.1-2.19,1.99-3.89,4.21-3.79Z"/></svg>